<?xml version="1.0" encoding="UTF-8"?>
<svg id="Layer_1" data-name="Layer 1" xmlns="http://www.w3.org/2000/svg" viewBox="0 0 40 40">
  <defs>
    <style>
      .cls-1 {
        fill: #fff;
      }

      .cls-2 {
        fill: #d1ab1e;
      }

      .cls-3 {
        fill: #ffd745;
      }
    </style>
  </defs>
  <g>
    <rect class="cls-3" x="2" y="2" width="36" height="36" rx="4.82" ry="4.82"/>
    <path class="cls-1" d="M33.18,2.5c2.38,0,4.32,1.94,4.32,4.32v26.36c0,2.38-1.94,4.32-4.32,4.32H6.82c-2.38,0-4.32-1.94-4.32-4.32V6.82c0-2.38,1.94-4.32,4.32-4.32h26.36M33.18,1.5H6.82C3.89,1.5,1.5,3.89,1.5,6.82v26.36c0,2.93,2.39,5.32,5.32,5.32h26.36c2.93,0,5.32-2.39,5.32-5.32V6.82c0-2.93-2.39-5.32-5.32-5.32h0Z"/>
  </g>
  <path class="cls-2" d="M33.18,37.5H6.82c-2.38,0-4.32-1.94-4.32-4.32V6.82c0-2.38,1.94-4.32,4.32-4.32h26.36c2.38,0,4.32,1.94,4.32,4.32v26.36c0,2.38-1.94,4.32-4.32,4.32ZM6.82,3.5c-1.83,0-3.32,1.49-3.32,3.32v26.36c0,1.83,1.49,3.32,3.32,3.32h26.36c1.83,0,3.32-1.49,3.32-3.32V6.82c0-1.83-1.49-3.32-3.32-3.32H6.82Z"/>
  <path class="cls-2" d="M24,32.5h-1c-.83,0-1.5-.67-1.5-1.5V9c0-.83.67-1.5,1.5-1.5h1c.83,0,1.5.67,1.5,1.5v22c0,.83-.67,1.5-1.5,1.5ZM23,8.5c-.28,0-.5.22-.5.5v22c0,.28.22.5.5.5h1c.28,0,.5-.22.5-.5V9c0-.28-.22-.5-.5-.5h-1Z"/>
  <path class="cls-2" d="M17,32.5h-1c-.83,0-1.5-.67-1.5-1.5V9c0-.83.67-1.5,1.5-1.5h1c.83,0,1.5.67,1.5,1.5v22c0,.83-.67,1.5-1.5,1.5ZM16,8.5c-.28,0-.5.22-.5.5v22c0,.28.22.5.5.5h1c.28,0,.5-.22.5-.5V9c0-.28-.22-.5-.5-.5h-1Z"/>
  <path class="cls-2" d="M10,32.5h-1c-.83,0-1.5-.67-1.5-1.5V9c0-.83.67-1.5,1.5-1.5h1c.83,0,1.5.67,1.5,1.5v22c0,.83-.67,1.5-1.5,1.5ZM9,8.5c-.28,0-.5.22-.5.5v22c0,.28.22.5.5.5h1c.28,0,.5-.22.5-.5V9c0-.28-.22-.5-.5-.5h-1Z"/>
  <path class="cls-2" d="M31,32.5h-1c-.83,0-1.5-.67-1.5-1.5V9c0-.83.67-1.5,1.5-1.5h1c.83,0,1.5.67,1.5,1.5v22c0,.83-.67,1.5-1.5,1.5ZM30,8.5c-.28,0-.5.22-.5.5v22c0,.28.22.5.5.5h1c.28,0,.5-.22.5-.5V9c0-.28-.22-.5-.5-.5h-1Z"/>
</svg>