<?xml version="1.0" encoding="UTF-8"?><svg id="Layer_1" xmlns="http://www.w3.org/2000/svg" viewBox="0 0 40 50"><defs><style>.cls-1{opacity:.8;}.cls-2,.cls-3{stroke-width:0px;}.cls-3{fill:#fff;}</style></defs><g class="cls-1"><path class="cls-2" d="M20,22.97c-2.93,0-5.31-2.39-5.31-5.32s2.38-5.34,5.31-5.34,5.32,2.39,5.32,5.34-2.39,5.32-5.32,5.32Z"/><path class="cls-3" d="M20,12.81c2.66,0,4.82,2.17,4.82,4.84s-2.16,4.82-4.82,4.82-4.81-2.16-4.81-4.82,2.16-4.84,4.81-4.84M20,11.81c-3.2,0-5.81,2.62-5.81,5.84s2.61,5.82,5.81,5.82,5.82-2.61,5.82-5.82-2.61-5.84-5.82-5.84h0Z"/><path class="cls-2" d="M20.07,49.5c-.45,0-.84-.3-.96-.74l-4.44-17.28h-7.77c-3.89,0-6.22-2.31-6.22-6.19v-15.44C.69,5.98,3.01,3.66,6.91,3.66h3.33c.9,0,1.05-.06,1.67-.64l1.11-1.11c1.06-1.01,2.16-1.42,3.79-1.42h6.37c1.63,0,2.72.41,3.77,1.4l1.15,1.15c.59.56.75.62,1.66.62h3.37c3.88,0,6.2,2.31,6.2,6.19v15.44c0,3.87-2.32,6.19-6.2,6.19h-7.64l-4.44,17.28c-.11.44-.5.74-.96.74ZM20,10.87c-3.72,0-6.75,3.04-6.75,6.77s3.03,6.76,6.75,6.76,6.76-3.03,6.76-6.76-2.97-6.77-6.76-6.77ZM30.71,11.19c-.6,0-1.11.49-1.11,1.08,0,.29.11.57.32.77.2.2.48.31.75.31.63,0,1.12-.49,1.12-1.08s-.51-1.08-1.08-1.08Z"/><path class="cls-3" d="M23.16,1c1.51,0,2.47.35,3.43,1.26l1.14,1.14c.69.66.98.77,2.01.77h3.37c3.62,0,5.7,2.07,5.7,5.69v15.44c0,3.61-2.08,5.69-5.7,5.69h-8.02l-4.54,17.66c-.06.22-.25.37-.47.37s-.42-.15-.47-.37l-4.54-17.66H6.91c-3.63,0-5.72-2.07-5.72-5.69v-15.44c0-3.61,2.08-5.69,5.72-5.69h3.32c1.02,0,1.3-.11,2.01-.77l1.12-1.12c.97-.92,1.93-1.27,3.44-1.27h6.37M20,24.9c4,0,7.26-3.26,7.26-7.26s-3.19-7.27-7.26-7.27-7.25,3.26-7.25,7.27,3.25,7.26,7.25,7.26M30.66,13.85s.02,0,.04,0c.87-.01,1.58-.72,1.58-1.58s-.74-1.58-1.58-1.58-1.61.72-1.61,1.58c0,.43.17.83.47,1.12.29.29.69.45,1.1.45M23.16,0h-6.37c-1.77,0-2.97.45-4.12,1.54l-1.14,1.14c-.48.45-.51.48-1.3.48h-3.32C2.7,3.16.19,5.66.19,9.85v15.44c0,4.19,2.51,6.69,6.72,6.69h7.38l4.35,16.91c.17.66.76,1.12,1.44,1.12s1.27-.46,1.44-1.12l4.35-16.91h7.25c4.2,0,6.7-2.5,6.7-6.69v-15.44c0-4.19-2.51-6.69-6.7-6.69h-3.37c-.81,0-.84-.03-1.33-.49l-1.12-1.12c-1.17-1.11-2.36-1.55-4.13-1.55h0ZM20,23.9c-3.44,0-6.25-2.81-6.25-6.26s2.8-6.27,6.25-6.27,6.26,2.76,6.26,6.27-2.81,6.26-6.26,6.26h0Z"/></g></svg>