<?xml version="1.0" encoding="UTF-8"?><svg id="Layer_1" xmlns="http://www.w3.org/2000/svg" viewBox="0 0 32 50"><defs><style>.cls-1{fill:#89552b;opacity:.2;}.cls-1,.cls-2,.cls-3,.cls-4,.cls-5,.cls-6{stroke-width:0px;}.cls-2{fill:#040000;}.cls-2,.cls-3{opacity:.1;}.cls-3,.cls-5{fill:#f1f1ef;}.cls-7{opacity:.5;}.cls-8{opacity:.8;}.cls-9{fill:none;stroke:#000;stroke-linejoin:round;stroke-width:2px;}.cls-4{fill:#dfddd6;}.cls-6{fill:#e6923c;}</style></defs><g class="cls-8"><g class="cls-7"><path class="cls-9" d="M4.9,24.13l.74,6.92c.02.23.21.4.44.4h.6s.08.18.08.18l.37.93.33.83.54,1.34.33.81.38.92,1.58,3.91.37.92,1.07,2.65.81,2h0s.39.98.39.98c.27.66.9,1.09,1.61,1.09h2.91c.71,0,1.35-.43,1.61-1.09l.4-.98h0s.8-2,.8-2l1.08-2.65.37-.92,1.58-3.91.37-.92.33-.81.54-1.34.34-.83.38-.93.07-.18h.6c.23,0,.42-.17.44-.4l.74-6.92H4.9Z"/><polygon class="cls-9" points="25.32 31.47 24.4 33.73 7.6 33.73 6.68 31.47 25.32 31.47"/><polygon class="cls-9" points="23.67 35.53 23.3 36.45 19.39 32.55 16.65 35.29 16 35.94 13.26 38.68 12.61 39.33 10.66 41.28 10.28 40.36 11.97 38.68 12.61 38.04 15.35 35.29 18.74 31.9 18.27 31.43 20.51 31.43 20.04 31.9 23.67 35.53"/><polygon class="cls-9" points="24.87 32.55 24.54 33.38 24 34.72 23.43 35.29 19.39 39.33 16.65 42.07 16 42.72 13.26 45.46 13.73 45.94 12.53 45.94 11.73 43.93 12.61 44.82 15.35 42.07 16 41.43 18.74 38.68 22.78 34.65 24.87 32.55"/><polygon class="cls-9" points="20.27 43.93 19.47 45.94 18.27 45.94 18.74 45.46 11.97 38.68 9.22 35.94 8.57 35.29 8 34.72 7.46 33.38 7.13 32.55 9.22 34.65 9.87 35.29 12.61 38.04 13.26 38.68 16 41.43 16.65 42.07 19.39 44.82 20.27 43.93"/><polygon class="cls-9" points="21.72 40.36 21.34 41.28 15.35 35.29 12.61 32.55 9.87 35.29 9.22 35.94 8.7 36.45 8.33 35.53 8.57 35.29 9.22 34.65 11.96 31.9 11.49 31.43 13.73 31.43 13.26 31.9 16 34.65 16.65 35.29 19.39 38.04 21.72 40.36"/><polygon class="cls-9" points="19.47 45.93 19.47 45.94 19.07 46.91 12.93 46.91 12.53 45.94 12.53 45.93 19.47 45.93"/><path class="cls-9" d="M7.09,30.5l-.42-3.06c-.04-.3.15-.57.41-.57h4.99c.43,0,.58.67.2.92l-4.57,3.06c-.25.17-.57-.01-.61-.35Z"/><path class="cls-9" d="M29.18,18.36c-.52-.76-1.24-1.36-2.07-1.72-.08-.04-.17-.07-.26-.1-.11-.04-.18-.15-.18-.27h0c0-.19,0-.37-.03-.55-.1-.99-.47-1.9-1.04-2.64-.66-.87-1.6-1.51-2.66-1.76-.02,0-.04-.01-.05-.02-.11-.05-.17-.18-.14-.32.04-.2.08-.4.1-.6.02-.19.03-.37.03-.56,0-1.39-.54-2.66-1.4-3.58-.87-.92-2.06-1.49-3.37-1.49h-4.21s0,0-.01,0c-.7,0-1.19-.72-.94-1.41.08-.22.18-.45.28-.68.18-.39-.23-.81-.58-.57-2.29,1.55-4.1,6.45-3.55,8.3.02.07.05.14.08.2.02.13.04.27.07.4.03.13-.03.26-.14.32-.02,0-.04.02-.05.02-1.96.47-3.48,2.24-3.7,4.41-.02.18-.03.36-.03.54h0c0,.12-.07.23-.18.27-.09.03-.17.07-.26.1-1.75.76-2.98,2.58-2.98,4.7,0,1.39.54,2.66,1.4,3.58.87.92,2.06,1.49,3.37,1.49h18.63c2.63,0,4.78-2.28,4.78-5.07,0-1.11-.34-2.14-.91-2.98Z"/><path class="cls-9" d="M22.75,10.98c.04-.2.08-.4.1-.6.02-.19.03-.37.03-.56,0-1.39-.54-2.66-1.4-3.58-.87-.92-2.06-1.49-3.37-1.49h-1.59c1.31,0,2.51.57,3.37,1.49s1.4,2.19,1.4,3.58c0,.19-.01.38-.03.56h-12.16c.02.07.05.14.08.2.02.13.04.27.07.4.03.13-.03.26-.14.32h12.19s.04.02.05.02c1.06.26,2,.89,2.66,1.76.57.74.94,1.65,1.04,2.64H5.36c-.02.18-.03.36-.03.54t0,0c0,.12-.07.23-.18.27-.09.03-.17.06-.25.1h20.63c.83.36,1.55.96,2.07,1.72.57.84.91,1.87.91,2.98,0,2.79-2.15,5.07-4.78,5.07h1.59c2.63,0,4.78-2.28,4.78-5.07,0-1.11-.34-2.14-.91-2.98-.52-.76-1.24-1.36-2.07-1.72-.08-.04-.17-.07-.25-.1-.05-.02-.1-.06-.13-.1-.03-.05-.05-.1-.05-.17h0c0-.19,0-.37-.03-.55-.1-.99-.47-1.9-1.04-2.64-.66-.87-1.6-1.51-2.66-1.76-.02,0-.04-.01-.05-.02-.11-.05-.17-.18-.14-.32Z"/></g><path class="cls-6" d="M4.9,24.13l.74,6.92c.02.23.21.4.44.4h.6s.08.18.08.18l.37.93.33.83.54,1.34.33.81.38.92,1.58,3.91.37.92,1.07,2.65.81,2h0s.39.98.39.98c.27.66.9,1.09,1.61,1.09h2.91c.71,0,1.35-.43,1.61-1.09l.4-.98h0s.8-2,.8-2l1.08-2.65.37-.92,1.58-3.91.37-.92.33-.81.54-1.34.34-.83.38-.93.07-.18h.6c.23,0,.42-.17.44-.4l.74-6.92H4.9Z"/><polygon class="cls-2" points="25.32 31.47 24.4 33.73 7.6 33.73 6.68 31.47 25.32 31.47"/><polygon class="cls-1" points="23.67 35.53 23.3 36.45 19.39 32.55 16.65 35.29 16 35.94 13.26 38.68 12.61 39.33 10.66 41.28 10.28 40.36 11.97 38.68 12.61 38.04 15.35 35.29 18.74 31.9 18.27 31.43 20.51 31.43 20.04 31.9 23.67 35.53"/><polygon class="cls-1" points="24.87 32.55 24.54 33.38 24 34.72 23.43 35.29 19.39 39.33 16.65 42.07 16 42.72 13.26 45.46 13.73 45.94 12.53 45.94 11.73 43.93 12.61 44.82 15.35 42.07 16 41.43 18.74 38.68 22.78 34.65 24.87 32.55"/><polygon class="cls-1" points="20.27 43.93 19.47 45.94 18.27 45.94 18.74 45.46 11.97 38.68 9.22 35.94 8.57 35.29 8 34.72 7.46 33.38 7.13 32.55 9.22 34.65 9.87 35.29 12.61 38.04 13.26 38.68 16 41.43 16.65 42.07 19.39 44.82 20.27 43.93"/><polygon class="cls-1" points="21.72 40.36 21.34 41.28 15.35 35.29 12.61 32.55 9.87 35.29 9.22 35.94 8.7 36.45 8.33 35.53 8.57 35.29 9.22 34.65 11.96 31.9 11.49 31.43 13.73 31.43 13.26 31.9 16 34.65 16.65 35.29 19.39 38.04 21.72 40.36"/><polygon class="cls-1" points="19.47 45.93 19.47 45.94 19.07 46.91 12.93 46.91 12.53 45.94 12.53 45.93 19.47 45.93"/><path class="cls-3" d="M7.09,30.5l-.42-3.06c-.04-.3.15-.57.41-.57h4.99c.43,0,.58.67.2.92l-4.57,3.06c-.25.17-.57-.01-.61-.35Z"/><path class="cls-5" d="M29.18,18.36c-.52-.76-1.24-1.36-2.07-1.72-.08-.04-.17-.07-.26-.1-.11-.04-.18-.15-.18-.27h0c0-.19,0-.37-.03-.55-.1-.99-.47-1.9-1.04-2.64-.66-.87-1.6-1.51-2.66-1.76-.02,0-.04-.01-.05-.02-.11-.05-.17-.18-.14-.32.04-.2.08-.4.1-.6.02-.19.03-.37.03-.56,0-1.39-.54-2.66-1.4-3.58-.87-.92-2.06-1.49-3.37-1.49h-4.21s0,0-.01,0c-.7,0-1.19-.72-.94-1.41.08-.22.18-.45.28-.68.18-.39-.23-.81-.58-.57-2.29,1.55-4.1,6.45-3.55,8.3.02.07.05.14.08.2.02.13.04.27.07.4.03.13-.03.26-.14.32-.02,0-.04.02-.05.02-1.96.47-3.48,2.24-3.7,4.41-.02.18-.03.36-.03.54h0c0,.12-.07.23-.18.27-.09.03-.17.07-.26.1-1.75.76-2.98,2.58-2.98,4.7,0,1.39.54,2.66,1.4,3.58.87.92,2.06,1.49,3.37,1.49h18.63c2.63,0,4.78-2.28,4.78-5.07,0-1.11-.34-2.14-.91-2.98Z"/><path class="cls-4" d="M22.75,10.98c.04-.2.08-.4.1-.6.02-.19.03-.37.03-.56,0-1.39-.54-2.66-1.4-3.58-.87-.92-2.06-1.49-3.37-1.49h-1.59c1.31,0,2.51.57,3.37,1.49s1.4,2.19,1.4,3.58c0,.19-.01.38-.03.56h-12.16c.02.07.05.14.08.2.02.13.04.27.07.4.03.13-.03.26-.14.32h12.19s.04.02.05.02c1.06.26,2,.89,2.66,1.76.57.74.94,1.65,1.04,2.64H5.36c-.02.18-.03.36-.03.54t0,0c0,.12-.07.23-.18.27-.09.03-.17.06-.25.1h20.63c.83.36,1.55.96,2.07,1.72.57.84.91,1.87.91,2.98,0,2.79-2.15,5.07-4.78,5.07h1.59c2.63,0,4.78-2.28,4.78-5.07,0-1.11-.34-2.14-.91-2.98-.52-.76-1.24-1.36-2.07-1.72-.08-.04-.17-.07-.25-.1-.05-.02-.1-.06-.13-.1-.03-.05-.05-.1-.05-.17h0c0-.19,0-.37-.03-.55-.1-.99-.47-1.9-1.04-2.64-.66-.87-1.6-1.51-2.66-1.76-.02,0-.04-.01-.05-.02-.11-.05-.17-.18-.14-.32Z"/></g></svg>