<?xml version="1.0" encoding="UTF-8"?><svg id="Layer_1" xmlns="http://www.w3.org/2000/svg" viewBox="0 0 40 50"><defs><style>.cls-1{opacity:.8;}.cls-2{fill:#29abe2;}.cls-2,.cls-3,.cls-4{stroke-width:0px;}.cls-3{fill:#fff;}.cls-4{fill:#f7931e;}</style></defs><g class="cls-1"><path class="cls-4" d="M20.07,49.5c-.73,0-1.33-.6-1.33-1.33v-17.14h2.66v17.14c0,.73-.6,1.33-1.33,1.33Z"/><path class="cls-3" d="M20.9,31.53v16.64c0,.46-.37.83-.83.83h0c-.46,0-.83-.37-.83-.83v-16.64h1.66M21.9,30.53h-3.66v17.64c0,1.01.82,1.83,1.83,1.83s1.83-.82,1.83-1.83v-17.64h0Z"/><path class="cls-4" d="M14.18,21.85c-4.23,0-7.67-3.44-7.67-7.67s3.44-7.67,7.67-7.67,7.67,3.44,7.67,7.67-3.44,7.67-7.67,7.67Z"/><path class="cls-3" d="M14.18,7.01c3.96,0,7.17,3.21,7.17,7.17s-3.21,7.17-7.17,7.17-7.17-3.21-7.17-7.17,3.21-7.17,7.17-7.17M14.18,6.01c-4.5,0-8.17,3.66-8.17,8.17s3.66,8.17,8.17,8.17,8.17-3.66,8.17-8.17-3.66-8.17-8.17-8.17h0Z"/><path class="cls-4" d="M6.14,10.74c-.21,0-.42-.06-.6-.16l-2.77-1.6c-.28-.16-.48-.42-.56-.73-.08-.31-.04-.63.12-.91.21-.37.61-.6,1.04-.6.21,0,.42.06.6.16l2.77,1.6c.57.33.77,1.07.44,1.64-.21.37-.61.6-1.04.6Z"/><path class="cls-3" d="M3.37,7.24c.12,0,.24.03.35.09l2.77,1.6c.33.19.45.62.26.96-.13.22-.36.35-.61.35-.12,0-.24-.03-.35-.09l-2.77-1.6c-.33-.19-.45-.62-.26-.96.13-.22.36-.35.61-.35M3.37,6.24h0c-.61,0-1.17.33-1.47.85-.23.39-.29.85-.17,1.29.12.44.4.81.79,1.03l2.77,1.6c.26.15.55.23.85.23.61,0,1.17-.33,1.47-.85.23-.39.29-.85.17-1.29-.12-.44-.4-.81-.79-1.03l-2.77-1.6c-.26-.15-.55-.23-.85-.23h0Z"/><path class="cls-4" d="M9.54,7.34c-.43,0-.83-.23-1.04-.6l-1.6-2.77c-.33-.57-.13-1.31.44-1.64.18-.11.39-.16.6-.16.43,0,.83.23,1.04.6l1.6,2.77c.33.57.13,1.31-.44,1.64-.18.11-.39.16-.6.16Z"/><path class="cls-3" d="M7.94,2.67c.24,0,.48.13.61.35l1.6,2.77c.19.33.08.76-.26.96-.11.06-.23.09-.35.09-.24,0-.48-.13-.61-.35l-1.6-2.77c-.19-.33-.08-.76.26-.96.11-.06.23-.09.35-.09M7.94,1.67h0c-.3,0-.59.08-.85.23-.81.47-1.09,1.51-.62,2.32l1.6,2.77c.3.52.87.85,1.47.85.3,0,.59-.08.85-.23.39-.23.67-.59.79-1.03.12-.44.06-.9-.17-1.29l-1.6-2.77c-.3-.52-.87-.85-1.47-.85h0Z"/><path class="cls-4" d="M14.18,6.09c-.66,0-1.2-.54-1.2-1.2V1.7c0-.66.54-1.2,1.2-1.2s1.2.54,1.2,1.2v3.19c0,.66-.54,1.2-1.2,1.2Z"/><path class="cls-3" d="M14.18,1c.39,0,.7.31.7.7v3.19c0,.39-.31.7-.7.7s-.7-.31-.7-.7V1.7c0-.39.31-.7.7-.7M14.18,0c-.94,0-1.7.76-1.7,1.7v3.19c0,.94.76,1.7,1.7,1.7s1.7-.76,1.7-1.7V1.7c0-.94-.76-1.7-1.7-1.7h0Z"/><path class="cls-4" d="M18.82,7.34c-.21,0-.42-.06-.6-.16-.28-.16-.47-.42-.56-.73-.08-.31-.04-.63.12-.91l1.6-2.77c.21-.37.61-.6,1.04-.6.21,0,.42.06.6.16.57.33.77,1.07.44,1.64l-1.6,2.77c-.21.37-.61.6-1.04.6Z"/><path class="cls-3" d="M20.42,2.67c.12,0,.24.03.35.09.33.19.45.62.26.96l-1.6,2.77c-.13.22-.36.35-.61.35-.12,0-.24-.03-.35-.09-.33-.19-.45-.62-.26-.96l1.6-2.77c.13-.22.36-.35.61-.35M20.42,1.67h0c-.61,0-1.17.33-1.47.85l-1.6,2.77c-.23.39-.29.85-.17,1.29.12.44.4.81.79,1.03.26.15.55.23.85.23.61,0,1.17-.33,1.47-.85l1.6-2.77c.23-.39.29-.85.17-1.29-.12-.44-.4-.81-.79-1.03-.26-.15-.55-.23-.85-.23h0Z"/><path class="cls-4" d="M1.7,15.38c-.66,0-1.2-.54-1.2-1.2s.54-1.2,1.2-1.2h3.19c.66,0,1.2.54,1.2,1.2s-.54,1.2-1.2,1.2H1.7Z"/><path class="cls-3" d="M4.89,13.48c.39,0,.7.31.7.7s-.31.7-.7.7H1.7c-.39,0-.7-.31-.7-.7s.31-.7.7-.7h3.19M4.89,12.48H1.7C.76,12.48,0,13.24,0,14.18s.76,1.7,1.7,1.7h3.19c.94,0,1.7-.76,1.7-1.7s-.76-1.7-1.7-1.7h0Z"/><path class="cls-2" d="M14.96,32.04c-2.62,0-5.08-1.16-6.76-3.17-1.68-2.01-2.37-4.67-1.89-7.29.61-3.32,3.22-6.09,6.49-6.89.71-.17,1.44-.26,2.16-.26.48,0,.96.04,1.44.12.86-3.9,4.3-6.69,8.35-6.69,4.72,0,8.56,3.84,8.56,8.56,0,.05,0,.11,0,.16,1.88.4,3.58,1.5,4.72,3.06,1.24,1.71,1.73,3.82,1.37,5.94-.62,3.68-4.03,6.45-7.93,6.45H14.96Z"/><path class="cls-3" d="M24.75,8.36c4.45,0,8.06,3.61,8.06,8.06,0,.19,0,.39-.02.58,3.92.59,6.83,4.29,6.11,8.51-.6,3.54-3.84,6.03-7.44,6.03H14.96c-5.1,0-9.12-4.6-8.16-9.87.57-3.15,3.01-5.73,6.12-6.49.69-.17,1.38-.25,2.04-.25s1.25.07,1.84.21c.61-3.84,3.94-6.77,7.95-6.77M24.75,7.36c-4.13,0-7.66,2.73-8.73,6.63-.35-.04-.71-.06-1.06-.06-.76,0-1.52.09-2.28.28-3.47.85-6.23,3.77-6.87,7.28-.51,2.77.22,5.57,2,7.7,1.77,2.13,4.38,3.35,7.15,3.35h16.5c4.14,0,7.76-2.95,8.42-6.87.38-2.25-.14-4.5-1.46-6.32-1.13-1.56-2.78-2.68-4.62-3.17-.12-4.89-4.14-8.82-9.05-8.82h0Z"/></g></svg>