<?xml version="1.0" encoding="UTF-8"?><svg id="Layer_1" xmlns="http://www.w3.org/2000/svg" viewBox="0 0 40 40"><defs><style>.cls-1{opacity:.8;}.cls-2{fill:#ff7bac;}.cls-2,.cls-3{stroke-width:0px;}.cls-3{fill:#fff;}</style></defs><g class="cls-1"><path class="cls-2" d="M27.76,38.75c-2.69,0-5.56-1.37-7.76-3.68-2.2,2.31-5.06,3.68-7.76,3.68-.85,0-1.66-.13-2.41-.4l-.37-.13.31-2.99-2.75,1.22-.24-.31c-2.06-2.7-2.06-6.93-.02-10.68-3.85-1.84-6.34-5.26-6.26-8.66v-.4s2.95-.62,2.95-.62l-2.01-2.24.22-.33c1.53-2.22,4.44-3.55,7.77-3.55.79,0,1.59.07,2.38.22.56-4.23,3.04-7.66,6.3-8.63l.38-.11,1.5,2.61,1.5-2.61.38.11c3.25.97,5.74,4.4,6.3,8.63.79-.15,1.59-.22,2.38-.22,3.33,0,6.24,1.33,7.77,3.55l.22.33-2.01,2.24,2.94.62v.4c.09,3.4-2.4,6.82-6.25,8.66,2.03,3.75,2.04,7.98-.02,10.68l-.24.31-2.75-1.22.32,2.99-.37.13c-.75.26-1.57.4-2.41.4ZM19.79,26.26l-.28.14c-.37.19-.61.57-.61.99,0,.61.49,1.1,1.1,1.1s1.1-.49,1.1-1.1c0-.41-.24-.8-.61-.99l-.28-.14v-4.63l4.01,2.32-.02.31c-.03.42.19.82.55,1.02.17.1.36.15.55.15.39,0,.76-.21.95-.55.15-.25.19-.55.11-.83-.08-.28-.26-.52-.51-.67-.17-.1-.36-.15-.55-.15-.22,0-.43.06-.61.19l-.26.17-4.01-2.32,4.01-2.32.26.17c.18.12.39.19.61.19.19,0,.38-.05.55-.15.25-.15.44-.38.51-.67.08-.28.04-.58-.11-.83-.2-.34-.56-.55-.95-.55-.19,0-.38.05-.55.15-.36.21-.57.61-.55,1.03l.02.31-4.01,2.32v-4.63l.28-.14c.37-.19.61-.57.61-.99,0-.61-.49-1.1-1.1-1.1s-1.1.49-1.1,1.1c0,.41.24.8.61.99l.28.14v4.63l-4.01-2.32.02-.31c.03-.42-.19-.82-.55-1.03-.17-.1-.36-.15-.55-.15-.39,0-.76.21-.95.55-.15.25-.19.55-.11.83.08.28.26.52.51.67.17.1.36.15.55.15.22,0,.43-.06.61-.19l.26-.17,4.01,2.32-4.01,2.32-.26-.17c-.18-.12-.39-.19-.61-.19-.19,0-.38.05-.55.15-.25.15-.44.38-.51.67-.08.28-.04.58.11.83.2.34.56.55.95.55.19,0,.38-.05.55-.15.36-.21.57-.61.55-1.03l-.02-.31,4.01-2.32v4.63Z"/><path class="cls-3" d="M21.74,1.75c3.17.95,5.61,4.44,6.01,8.75.96-.22,1.9-.32,2.82-.32,3.13,0,5.9,1.22,7.36,3.33l-2.33,2.59,3.4.72c.08,3.31-2.48,6.71-6.46,8.42,2.22,3.72,2.29,7.97.28,10.61l-3.18-1.42.36,3.46c-.71.25-1.47.37-2.25.37-2.65,0-5.55-1.4-7.76-3.92-2.2,2.52-5.11,3.92-7.76,3.92-.78,0-1.54-.12-2.25-.37l.36-3.46-3.18,1.42c-2.01-2.63-1.93-6.89.28-10.61-3.98-1.71-6.54-5.1-6.46-8.42l3.4-.72-2.33-2.59c1.46-2.11,4.22-3.33,7.36-3.33.92,0,1.86.1,2.82.32.39-4.31,2.83-7.8,6.01-8.75l1.74,3.01,1.74-3.01M19.29,20.04l-2.99-1.73c.04-.6-.27-1.18-.8-1.49-.24-.14-.52-.21-.8-.21-.57,0-1.1.31-1.39.8-.21.37-.27.8-.16,1.21.11.41.38.76.75.97.24.14.52.21.8.21.32,0,.63-.09.89-.27l2.99,1.73-2.99,1.73c-.26-.17-.57-.27-.89-.27-.28,0-.56.07-.8.21-.37.21-.63.56-.75.97-.11.41-.05.84.16,1.21.28.49.82.8,1.39.8.28,0,.56-.07.8-.21.53-.31.83-.89.8-1.49l2.99-1.73v3.46c-.54.27-.89.82-.89,1.43,0,.88.72,1.6,1.6,1.6s1.6-.72,1.6-1.6c0-.61-.36-1.17-.89-1.43v-3.46l2.99,1.73c-.04.6.27,1.18.8,1.49.24.14.52.21.8.21.57,0,1.1-.31,1.39-.8.21-.37.27-.8.16-1.21-.11-.41-.38-.76-.75-.97-.24-.14-.52-.21-.8-.21-.32,0-.63.09-.89.27l-2.99-1.73,2.99-1.73c.26.18.57.27.89.27.28,0,.56-.07.8-.21.37-.21.63-.56.75-.97.11-.41.05-.84-.16-1.21-.29-.49-.82-.8-1.39-.8-.28,0-.56.07-.8.21-.53.31-.83.89-.8,1.49l-2.99,1.73v-3.45c.54-.27.89-.82.89-1.43,0-.88-.72-1.6-1.6-1.6s-1.6.72-1.6,1.6c0,.61.36,1.17.89,1.43v3.45M21.27.56l-.4.68-.87,1.51-.87-1.51-.4-.68-.76.23c-3.31.99-5.86,4.35-6.57,8.53-.66-.1-1.31-.14-1.96-.14-3.5,0-6.55,1.41-8.18,3.76l-.45.65.53.59,1.17,1.3-1.71.36-.77.16-.02.79c-.08,3.45,2.32,6.92,6.08,8.89-1.88,3.8-1.79,8.02.3,10.77l.48.63.72-.32,1.6-.71-.18,1.74-.08.79.75.26c.81.28,1.67.43,2.58.43,2.68,0,5.51-1.28,7.76-3.47,2.24,2.19,5.07,3.47,7.76,3.47.9,0,1.77-.14,2.58-.43l.75-.26-.08-.79-.18-1.74,1.6.71.72.32.48-.63c2.1-2.74,2.19-6.96.3-10.77,3.76-1.97,6.16-5.44,6.08-8.89l-.02-.79-.77-.16-1.71-.36,1.17-1.3.53-.59-.45-.65c-1.63-2.36-4.69-3.76-8.18-3.76-.65,0-1.31.05-1.96.14-.71-4.18-3.27-7.54-6.57-8.53l-.76-.23h0ZM20,15.82l-.26-.13c-.2-.1-.34-.32-.34-.54,0-.33.27-.6.6-.6s.6.27.6.6c0,.22-.14.44-.34.54l-.26.13h0ZM24.72,18.55l-.02-.29c-.01-.22.11-.45.3-.56.09-.05.19-.08.3-.08.21,0,.41.12.52.3.08.14.1.3.06.45s-.14.28-.28.36c-.09.05-.19.08-.3.08-.12,0-.24-.03-.33-.1l-.25-.16h0ZM14.7,18.81c-.1,0-.21-.03-.3-.08-.14-.08-.24-.21-.28-.36-.04-.16-.02-.31.06-.45.11-.19.31-.3.52-.3.1,0,.21.03.3.08.19.11.31.34.3.56l-.02.29-.25.17c-.1.07-.21.1-.33.1h0ZM24.72,23.99l.25-.16c.1-.07.21-.1.33-.1.1,0,.21.03.3.08.14.08.24.21.28.36.04.16.02.31-.06.45-.11.19-.31.3-.52.3-.1,0-.21-.03-.3-.08-.19-.11-.31-.34-.3-.56l.02-.29h0ZM14.71,24.93c-.21,0-.41-.11-.52-.3-.08-.14-.1-.3-.06-.45.04-.16.14-.28.28-.36.09-.05.19-.08.3-.08.12,0,.24.03.33.1l.25.17.02.29c.01.22-.11.45-.3.56-.09.05-.19.08-.3.08h0ZM20,27.98c-.33,0-.6-.27-.6-.6,0-.22.14-.44.34-.54l.26-.13.26.13c.2.1.34.32.34.54,0,.33-.27.6-.6.6h0Z"/></g></svg>