<?xml version="1.0" encoding="UTF-8"?>
<svg id="Layer_1" data-name="Layer 1" xmlns="http://www.w3.org/2000/svg" viewBox="0 0 40 40">
  <defs>
    <style>
      .cls-1 {
        fill: #9d6d51;
      }

      .cls-1, .cls-2, .cls-3, .cls-4, .cls-5, .cls-6, .cls-7, .cls-8, .cls-9, .cls-10, .cls-11, .cls-12, .cls-13, .cls-14, .cls-15 {
        fill-rule: evenodd;
      }

      .cls-2 {
        fill: #e0e0e0;
      }

      .cls-3, .cls-16 {
        fill: #dac5ac;
      }

      .cls-4, .cls-17 {
        fill: #f4ebd2;
      }

      .cls-5 {
        fill: #4e4e4e;
      }

      .cls-18 {
        fill: #fff;
      }

      .cls-6 {
        fill: #fdb5b5;
      }

      .cls-7 {
        fill: #fda8a8;
      }

      .cls-8 {
        fill: #8f982c;
      }

      .cls-9 {
        fill: #fda702;
      }

      .cls-10 {
        fill: #606060;
      }

      .cls-11 {
        fill: #ebebeb;
      }

      .cls-19 {
        fill: #e0ba7f;
      }

      .cls-12 {
        fill: #7b8325;
      }

      .cls-13 {
        fill: #b18a74;
      }

      .cls-14 {
        fill: #3f3f3f;
      }

      .cls-15 {
        fill: #fdb935;
      }

      .cls-20 {
        fill: #ffd391;
      }
    </style>
  </defs>
  <g>
    <path class="cls-18" d="M19.96,38.78c-4.42-.02-6.3-1.78-6.96-2.67C2.95,31.79,2.18,19.61,2.17,19.49c0-.04,0-.08,0-.12.04-2.98,2.38-5.67,6.45-7.49l-.02-.75c-.05-2.02-.11-4.11-.09-6.06l-4.52-.11c-.27,0-.49-.23-.49-.5v-.76s0-.08.02-.11c0-.03-.01-.06-.01-.09v-.19s0-.06,0-.08v-.5c0-.27.21-.5.48-.5,0,0,32.13-.99,32.14-.99.13,0,.25.05.35.14.1.09.15.22.15.36v1.49c.01.1-.01.2-.07.28.05.08.08.18.08.27v.93s0,.05,0,.07v.5c0,.13-.07.26-.16.35-.09.09-.22.14-.35.14,0,0-21.58-.53-21.58-.53-.02,1.39-.08,2.84-.14,4.25l-.03.68c1.83-.33,3.71-.5,5.61-.5,9.83,0,17.83,4.36,17.83,9.72,0,0,0,.08,0,.11,0,.12-.77,12.3-10.83,16.62-.66.88-2.54,2.64-6.96,2.67h-.08Z"/>
    <path class="cls-18" d="M36.14,1.72v1.49s-22.09.18-22.09.18c0,.11,0,.21,0,.32l22.09.04v1s0,0,0,0v.5s-22.08-.55-22.08-.55c0,1.96-.12,4.05-.2,6.05,1.91-.39,3.97-.61,6.14-.61,9.57,0,17.33,4.13,17.33,9.22,0,.03,0,.06,0,.08h0s-.64,12.04-10.65,16.24c-.47.68-2.17,2.55-6.64,2.57h-.08c-4.46-.02-6.17-1.89-6.64-2.57C3.32,31.5,2.67,19.46,2.67,19.46h0s0-.05,0-.08c0-2.9,2.53-5.49,6.47-7.18-.06-2.56-.15-5.2-.11-7.61l-5.01-.12v-.76s5.04,0,5.04,0c0-.09,0-.18,0-.27l-5.04.04v-.19s0,0,0,0v-.57s32.12-.99,32.12-.99M36.14.72s-.02,0-.03,0L3.98,1.72c-.54.02-.97.46-.97,1.01v.47s0,.09,0,.13v.19s0,.04.01.06c0,.04,0,.08,0,.11v.76c0,.54.43.99.97,1l4.03.1c0,1.81.04,3.73.09,5.6v.4c-4.1,1.93-6.44,4.75-6.44,7.82,0,.01,0,.02,0,.04,0,.03,0,.06,0,.1.03.51.79,12.52,11.01,17,.78.98,2.81,2.74,7.27,2.76h.09c4.47-.02,6.49-1.78,7.28-2.76,10.22-4.48,10.98-16.49,11.01-17,0-.03,0-.06,0-.09,0-.01,0-.03,0-.04,0-5.73-8.05-10.22-18.33-10.22-1.71,0-3.42.13-5.08.4v-.12c.06-1.22.11-2.48.13-3.71l21.06.52s.02,0,.02,0c.26,0,.51-.1.69-.28.19-.18.3-.44.31-.71v-.5s0-.07,0-.11v-.9c0-.09,0-.19-.03-.28.03-.09.04-.19.04-.29v-1.49c-.02-.27-.13-.53-.32-.71-.19-.18-.43-.28-.69-.28h0Z"/>
  </g>
  <g>
    <polygon class="cls-20" points="36.15 3.22 4.02 3.48 4.01 2.72 36.13 1.72 36.15 3.22"/>
    <polygon class="cls-19" points="36.13 2.6 36.15 3.22 4.02 3.48 4.01 3.29 36.13 2.6"/>
    <polygon class="cls-20" points="36.14 5.26 4.01 4.46 4.02 3.7 36.15 3.76 36.14 5.26"/>
    <polygon class="cls-19" points="36.14 5.26 4.01 4.46 4.02 4.21 36.15 4.76 36.14 5.26"/>
    <g>
      <path class="cls-14" d="M13.17,35.46s1.33,2.79,6.79,2.82h.08c5.45-.03,6.79-2.82,6.79-2.82l-6.83.8-6.83-.8Z"/>
      <path class="cls-5" d="M2.67,19.46s.9,16.87,17.17,17.64h.16s.16,0,.16,0c16.27-.77,17.17-17.64,17.17-17.64l-17.33,8.59L2.67,19.46Z"/>
      <path class="cls-10" d="M2.67,19.38c0-5.09,7.76-9.22,17.33-9.22s17.33,4.13,17.33,9.22-7.76,9.23-17.33,9.23S2.67,24.48,2.67,19.38Z"/>
      <path class="cls-14" d="M3.32,19.38c0-4.78,7.47-8.66,16.68-8.66s16.68,3.88,16.68,8.66-7.47,8.66-16.68,8.66S3.32,24.17,3.32,19.38Z"/>
      <path class="cls-14" d="M3.32,19.38c0-4.78,7.47-8.66,16.68-8.66s16.68,3.88,16.68,8.66-7.47,8.66-16.68,8.66S3.32,24.17,3.32,19.38Z"/>
      <path class="cls-1" d="M4.2,22.17c2.24,3.42,8.47,5.87,15.8,5.87s13.7-2.51,15.87-5.98c-.63-4.59-7.48-8.21-15.83-8.21s-15.3,3.67-15.84,8.31Z"/>
      <path class="cls-13" d="M10.97,15.88s-1.93.93-2.46,1.42c-.45.42-.67.58-1.03.82-.36.24-1.34,1.3-1.52,1.54-.18.24-.98,1.02-.98,1.44s.06.36.27.09c.21-.27.65-1.29,1.25-1.62.6-.33,1.67-1.35,1.97-1.53.3-.18.75-.63,1.16-.9.42-.27,1.64-1.14,1.97-1.26.33-.12.33-.42-.63,0Z"/>
      <path class="cls-13" d="M25.15,14.84s1.69.13,2.47.58c.78.46,2.76.99,3.12,1.24.36.25,1.22.74,1.81,1.24.59.5,1.09.75,1.38,1.17.29.41.5.75.58,1.09.08.35-.23.1-.58-.15-.04,0-.15-.22-.36-.51-.22-.29-.36-.58-.87-.95-.51-.36-1.38-1.17-2.54-1.68-1.16-.51-1.6-.58-2.54-.95-.94-.36-2.58-.62-2.9-.8-.33-.18.11-.29.44-.29Z"/>
      <path class="cls-3" d="M25.51,22.44c.44-.28.65-.46.65-.48.26-.19.45-.37.6-.56-.47.51-1.09.91-1.75,1.22.18-.05.35-.11.5-.18ZM12.64,23.33c-1.95.35-2.22,1.14-2.23,1.25-.41.93.21,1.29.98,1.42-.18-.45-.11-.78-.13-.77.29-.84.78-1.45,1.38-1.9ZM12.99,24.95c.18-.1.39-.19.63-.28-.02,0,.55,0,1.46-.12.25-.38.58-.7.94-.96-2.35,0-2.82.9-2.86,1.02-.07.12-.13.23-.17.33ZM18.22,23.81c-.65.12-1.12.29-1.45.47.55-.11,1.13-.25,1.74-.42-.1-.02-.19-.04-.29-.05ZM20.83,24.24c-1.18.54-2.59,1.03-4.28,1.4,2.02-.34,3.74-.84,5.15-1.36-.31,0-.6-.02-.86-.04ZM25.87,23.77c-1.5.96-3.42,1.68-5.28,2.22,5.59-1.22,8.59-3.94,8.55-4.01.21-.19.38-.38.49-.56-.2-.05-.43-.09-.71-.12-.54,1.28-1.71,2.03-3.05,2.47ZM29.08,20.02c.15.03.45.11.81.24-.05-.25-.15-.46-.25-.63-.34-.2-.74-.42-1.23-.65.36.41.57.77.67,1.05ZM26.31,18.82c.03.33-.03.73-.23,1.19,0,0-.27.54-.99,1.3,1.13-.77,1.45-1.66,1.46-1.68.13-.28.02-.55-.24-.82ZM22.02,22.36c1.09-.67,2.04-1.54,2.66-2.66.09-.22.77-1.07-.26-1.35.18.32.17.53.11.54-.14,1.83-1.66,2.9-3.4,3.53.31,0,.6-.03.88-.06ZM24.8,25.91c2.02-.45,4.05-1.32,5.3-2.99.07-.13.42-.48.4-.83-1.13,1.68-3.43,2.93-5.7,3.82ZM31.06,20.87l.03.02-.03-.05v.02ZM19.73,16.7c-1.34-.12-2.92-.04-4.64.43.84-.11,1.77-.19,2.82-.24.02.06,1.58-.02,3.74.61-.59-.29-1.27-.56-1.91-.79ZM23,19.57h-.01s-4.52-2.85-10.65-.57c1.16-.22,2.57-.38,4.27-.47.02.08,2.79-.09,6.02,1.49.16-.17.28-.33.37-.45ZM19.73,21.62c-2.27-.45-7.98-1.18-10.88,1.73l.03.03s-.25.44-.54.71c-.03.23.09.49.58.73,1.13-3.31,6.77-2.91,6.87-2.94,1.64.14,2.93,0,3.94-.26ZM19,20.16c-1.83-.46-4.47-.7-7.53.34-.03.04-.06.09-.1.14,1.8-.53,4.3-.86,7.62-.48ZM10.28,21.02l-.02-.04s-.11.07-.19.12c.07-.03.14-.06.21-.09Z"/>
      <path class="cls-4" d="M25.51,22.44c-.16.06-.33.12-.5.18.66-.31,1.28-.71,1.75-1.22-.15.18-.34.37-.6.56,0,.02-.21.2-.65.48ZM12.64,23.33c-.6.44-1.09,1.06-1.38,1.9.01,0-.05.32.13.77-.77-.13-1.39-.49-.98-1.42.01-.1.28-.9,2.23-1.25ZM25.97,27.47c2.44-.54,4.75-1.42,6.13-2.85,1.34-1.03,2.54-2.41,1.92-3.84-.13-.23-.58-.46-1.12.02,0-.24-.18-.62-.19-.62-1.84-3.72-8.77-4.39-11.14-4.51-1.33-.24-2.2-.21-2.22-.25-.31.02-.61.03-.9.05-.25-.03-.56-.02-.78.06-4.97.46-6.91,1.69-7.56,2.88-1.79.71-4.63,2.19-4.09,4.28,0,.1.47.52,1.06.19.01.15.04.28.07.41-.32.74-.07,1.36.37,1.84,3.06,1.78,7.51,2.9,12.46,2.9,2.11,0,4.12-.2,5.97-.57ZM12.99,24.95c.04-.11.1-.22.17-.33.03-.12.51-1.02,2.86-1.02-.36.26-.69.57-.94.96-.91.11-1.48.12-1.46.12-.24.09-.45.18-.63.28ZM18.22,23.81c.09.02.19.03.29.05-.6.17-1.19.31-1.74.42.33-.18.8-.35,1.45-.47ZM20.83,24.24c.27.02.56.03.86.04-1.41.52-3.13,1.02-5.15,1.36,1.69-.37,3.11-.86,4.28-1.4ZM25.87,23.77c1.34-.43,2.51-1.19,3.05-2.47.28.03.52.07.71.12-.12.18-.28.37-.49.56.03.07-2.96,2.79-8.55,4.01,1.86-.54,3.78-1.27,5.28-2.22ZM29.08,20.02c-.11-.28-.31-.64-.67-1.05.49.23.89.45,1.23.65.1.17.2.38.25.63-.36-.13-.66-.2-.81-.24ZM26.31,18.82c.26.26.37.54.24.82-.01.01-.33.9-1.46,1.68.72-.76.99-1.3.99-1.3.2-.46.27-.86.23-1.19ZM22.02,22.36c-.28.03-.57.05-.88.06,1.74-.62,3.26-1.7,3.4-3.53.06-.01.07-.22-.11-.54,1.03.28.35,1.13.26,1.35-.63,1.12-1.58,1.98-2.66,2.66ZM24.8,25.91c2.27-.88,4.57-2.14,5.7-3.82.02.35-.33.7-.4.83-1.25,1.67-3.28,2.54-5.3,2.99ZM31.06,20.87v-.02s.03.05.03.05l-.03-.02ZM19.73,16.7c.64.23,1.32.5,1.91.79-2.15-.63-3.72-.55-3.74-.61-1.05.05-1.98.13-2.82.24,1.73-.47,3.3-.54,4.64-.43ZM23,19.57c-.09.13-.21.28-.37.45-3.24-1.58-6-1.41-6.02-1.49-1.7.09-3.1.25-4.27.47,6.13-2.28,10.66.57,10.65.57h.01ZM19.73,21.62c-1.02.26-2.31.39-3.94.26-.1.02-5.74-.37-6.87,2.94-.49-.24-.61-.5-.58-.73.29-.27.49-.68.54-.71l-.03-.03c2.91-2.91,8.62-2.18,10.88-1.73ZM19,20.16c-3.33-.38-5.82-.05-7.62.48.04-.05.07-.1.1-.14,3.06-1.04,5.7-.8,7.53-.34ZM10.28,21.02c-.07.03-.14.06-.21.09.08-.05.14-.09.19-.12l.02.04Z"/>
      <path class="cls-7" d="M23.1,22.87s-2.85-1.53-8.35-5.18c-.03-.03.04-1.03.04-1.03l10.58,1.88.08,1.75s-.11,1.48-2.34,2.59Z"/>
      <path class="cls-6" d="M23.12,22.14s6.17-3.82-1.92-6.87c.02-.08-3.37-.89-6.5,1.49,1.85,1.1,8.42,5.38,8.42,5.38Z"/>
      <path class="cls-11" d="M22.74,21.88c-1.25-.81-5.23-3.39-7.28-4.66,3.42-2.93,6.74-.96,6.79-.87,4.77,2.17,1.24,4.99.49,5.53Z"/>
      <path class="cls-2" d="M22.71,22.66c-.89-.5-3.31-1.91-7.19-4.46l-.05-1c0,.06,7.27,4.51,7.27,4.51l-.03.95Z"/>
      <path class="cls-7" d="M25.16,22.18s-2.33-2.28-6.66-7.37c-.02-.04.31-.98.31-.98l9.68,4.82-.39,1.7s-.5,1.39-2.94,1.82Z"/>
      <path class="cls-6" d="M25.38,21.47s6.95-1.91-.01-7.14c.04-.08-3-1.82-6.66-.43,1.49,1.58,6.67,7.57,6.67,7.57Z"/>
      <path class="cls-11" d="M25.07,21.12c-.99-1.14-4.13-4.75-5.76-6.56,4.08-1.83,6.74,1.01,6.77,1.11,4.01,3.45-.14,5.15-1,5.45Z"/>
      <path class="cls-2" d="M24.85,21.86c-.72-.74-2.68-2.78-5.73-6.34l.22-.97c-.01.06,5.79,6.41,5.79,6.41l-.28.9Z"/>
      <path class="cls-9" d="M15.2,18.36c.17,0,.72.05,1.09.18.37.13,1.1.37,1.38.61.28.24,1.66,1.08,1.21,2.31-.45,1.22-.87,1.13-1.5,1.64-.62.51-1.57.57-2.41.55-.85-.02-1.97-.48-2.47-.67-.5-.19-1.5-.69-1.76-1.43-.23-.66-.23-1.38.85-2.27,1.08-.89,2.12-1,3.62-.91Z"/>
      <path class="cls-15" d="M11.69,20.18s.04.2.23.55c.19.34.23.46.4.61.17.14.19.19.46.3.27.11.59.24.63.24.04,0,.16.14.11.24-.05.1-.03.25-.29.24-.26,0-.45.02-.63-.06-.18-.08-.45-.19-.58-.3-.12-.12-.37-.31-.46-.49-.09-.17-.24-.34-.23-.61,0-.27,0-.78.34-.73Z"/>
      <path class="cls-8" d="M25.03,19.88l-.43.18s-.49-.09-.47-.83c0,0,.42-.19.56-.26-.06.08-.06.23-.08.21.11.61.34.66.42.66v.03Z"/>
      <path class="cls-8" d="M24.56,22.4l-.43.18s-.49-.09-.47-.83c0,0,.42-.2.56-.26-.06.08-.06.23-.08.21.11.61.34.66.42.66v.03Z"/>
      <path class="cls-8" d="M20.52,24.24l-.43.18s-.49-.09-.47-.83c0,0,.42-.2.56-.26-.06.08-.06.23-.08.21.11.61.34.66.42.66v.03Z"/>
      <path class="cls-8" d="M20.92,21.95l-.43.18s-.49-.09-.47-.83c0,0,.42-.2.56-.26-.06.08-.06.23-.08.21.11.61.34.66.42.66v.03Z"/>
      <path class="cls-8" d="M27.99,20.8l-.43.18s-.49-.09-.47-.83c0,0,.42-.19.56-.26-.06.08-.06.23-.08.21.11.61.34.66.42.66v.03Z"/>
      <path class="cls-8" d="M22.75,19.88l-.43.18s-.49-.09-.47-.83c0,0,.42-.19.56-.26-.06.08-.06.23-.08.21.11.61.34.66.42.66v.03Z"/>
      <path class="cls-8" d="M26.49,23.69l-.43.18s-.49-.09-.47-.83c0,0,.42-.2.56-.26-.06.08-.06.23-.08.21.11.61.34.66.42.66v.03Z"/>
      <path class="cls-8" d="M23.48,22.33l-.43.18s-.49-.09-.47-.83c0,0,.42-.19.56-.26-.06.08-.06.23-.08.21.11.61.34.66.42.66v.03Z"/>
      <path class="cls-8" d="M29.38,21.83l-.15.48s-.38.35-.88-.16c0,0,.13-.48.18-.64.02.11.12.21.09.21.5.32.69.16.73.09h.03Z"/>
      <path class="cls-8" d="M27.5,22.01l.17.46s-.1.51-.8.46c0,0-.18-.45-.24-.59.08.07.22.07.2.1.59-.09.64-.34.64-.42h.03Z"/>
      <path class="cls-8" d="M18.65,22.99l-.26.38s-.43.18-.8-.44c0,0,.25-.42.33-.56,0,.12.07.26.04.25.4.48.61.4.67.35l.02.02Z"/>
      <path class="cls-8" d="M28.35,22.42l.17.46s-.1.51-.8.46c0,0-.18-.45-.24-.59.08.07.22.07.2.1.59-.09.64-.34.64-.42h.03Z"/>
      <path class="cls-8" d="M20.09,21l-.44-.16s-.31-.42.16-.97c0,0,.44.14.58.19-.1.02-.19.14-.19.1-.3.55-.15.75-.09.8v.03Z"/>
      <path class="cls-8" d="M22.03,21.03l-.43.18s-.49-.09-.47-.83c0,0,.42-.19.56-.26-.06.08-.06.23-.08.21.11.61.34.66.42.66v.03Z"/>
      <path class="cls-8" d="M23.66,19.21l-.09.48s-.34.38-.91,0c0,0,.06-.46.08-.62.03.1.15.17.12.18.55.21.72.03.76-.05h.03Z"/>
      <path class="cls-8" d="M26.49,21.59l-.09.48s-.34.38-.91,0c0,0,.06-.46.08-.62.03.1.15.17.12.18.55.21.72.02.76-.05h.03Z"/>
      <path class="cls-8" d="M19.68,22.28l-.09.48s-.34.38-.91,0c0,0,.06-.46.08-.62.03.1.15.17.12.18.55.21.72.03.76-.05h.03Z"/>
      <path class="cls-8" d="M22.52,21.3l-.09.48s-.34.38-.91,0c0,0,.06-.46.08-.62.03.1.15.17.12.18.55.21.72.03.76-.05h.03Z"/>
      <path class="cls-8" d="M25.2,23.01l-.09.48s-.34.38-.91,0c0,0,.06-.46.08-.62.03.1.15.17.12.18.55.21.72.03.76-.05h.03Z"/>
      <path class="cls-8" d="M21.73,21.92l-.09.48s-.34.38-.91,0c0,0,.06-.46.08-.62.03.1.15.17.12.18.55.21.72.03.76-.05h.03Z"/>
      <path class="cls-8" d="M20.96,19.18l.24.43s-.02.52-.66.62c0,0-.25-.37-.33-.5.09.05.21.02.2.05.53-.23.54-.5.52-.58l.03-.02Z"/>
      <path class="cls-8" d="M20.08,21.58l.24.43s-.02.52-.66.62c0,0-.25-.37-.33-.5.09.05.21.02.2.05.53-.23.54-.5.52-.58l.03-.02Z"/>
      <path class="cls-8" d="M22.92,22.81l.24.43s-.02.52-.66.62c0,0-.25-.37-.33-.5.09.05.21.02.2.05.53-.23.54-.5.52-.58l.03-.02Z"/>
      <path class="cls-8" d="M25.6,22.32l.24.43s-.02.52-.66.62c0,0-.25-.37-.33-.5.09.05.21.02.2.05.53-.23.54-.5.52-.58l.03-.02Z"/>
      <path class="cls-8" d="M25.64,20.58l.24.43s-.02.52-.66.62c0,0-.25-.37-.33-.5.09.05.22.02.2.05.53-.23.54-.5.52-.58l.03-.02Z"/>
      <path class="cls-8" d="M23.19,20.5l.24.43s-.02.52-.66.62c0,0-.25-.38-.33-.5.09.05.22.02.2.05.53-.23.54-.5.53-.58l.03-.02Z"/>
      <path class="cls-8" d="M24.16,20.43l-.04.5s-.28.4-.85.08c0,0,0-.46,0-.63.04.1.17.16.14.17.55.16.7-.05.73-.13h.03Z"/>
      <path class="cls-8" d="M25.1,20.93l-.04.5s-.29.4-.85.08c0,0,0-.47,0-.63.04.1.17.16.14.17.55.16.7-.05.73-.13h.03Z"/>
      <path class="cls-8" d="M24.7,23.79l-.05.5s-.28.4-.85.08c0,0,0-.46,0-.63.04.1.17.16.14.17.55.16.7-.05.73-.13h.03Z"/>
      <path class="cls-8" d="M20.89,22.86l-.04.5s-.29.4-.85.08c0,0,0-.46,0-.63.04.1.17.16.14.17.55.16.7-.05.73-.13h.03Z"/>
      <path class="cls-8" d="M27.59,20.68l-.04.5s-.29.4-.85.08c0,0,0-.47,0-.63.04.1.17.16.14.17.55.16.7-.05.73-.13h.03Z"/>
      <path class="cls-8" d="M26.09,19.94l.47-.05s.43.23.25.89c0,0-.42.08-.57.1.08-.06.11-.2.13-.17.03-.6-.19-.72-.27-.74v-.03Z"/>
      <path class="cls-12" d="M24.94,19.05s.55.66.06.84c-.02.01-.32.06-.44-.65.04.03,0-.45.39-.18Z"/>
      <path class="cls-12" d="M24.47,21.58s.55.66.06.84c-.02.01-.32.06-.44-.65.04.03,0-.45.39-.18Z"/>
      <path class="cls-12" d="M20.44,23.41s.55.66.06.84c-.02.01-.32.06-.44-.65.04.03,0-.45.39-.18Z"/>
      <path class="cls-12" d="M20.84,21.13s.55.66.06.84c-.02.01-.32.06-.44-.65.04.03,0-.45.39-.18Z"/>
      <path class="cls-12" d="M27.9,19.97s.55.66.06.84c-.02.01-.31.06-.44-.65.04.03,0-.45.39-.18Z"/>
      <path class="cls-12" d="M22.67,19.05s.55.66.06.84c-.02.01-.32.06-.44-.65.04.03,0-.45.39-.18Z"/>
      <path class="cls-12" d="M26.4,22.86s.55.66.06.84c-.02.01-.31.06-.44-.65.04.03,0-.45.39-.18Z"/>
      <path class="cls-12" d="M23.39,21.5s.55.66.06.84c-.02.01-.31.06-.44-.65.04.03,0-.45.39-.18Z"/>
      <path class="cls-12" d="M28.74,21.34s.82-.01.63.52c0,.03-.16.3-.74-.07.05-.01-.32-.3.12-.45Z"/>
      <path class="cls-12" d="M26.71,22.07s.65-.55.8-.03c.01.02.05.33-.63.44.03-.04-.43-.02-.17-.41Z"/>
      <path class="cls-12" d="M18.18,22.28s.79.31.45.73c-.01.02-.23.22-.69-.33.05,0-.25-.43.23-.4Z"/>
      <path class="cls-12" d="M27.55,22.48s.65-.55.8-.03c.01.02.05.33-.63.44.03-.04-.43-.02-.17-.41Z"/>
      <path class="cls-12" d="M20.54,20.3s0,.9-.47.69c-.02,0-.27-.17.07-.82.01.06.28-.35.41.13Z"/>
      <path class="cls-12" d="M21.94,20.2s.55.66.06.84c-.02.01-.31.06-.44-.65.04.03,0-.45.39-.18Z"/>
      <path class="cls-12" d="M22.94,18.88s.85-.18.71.37c0,.03-.13.32-.77.07.05-.02-.35-.22.06-.44Z"/>
      <path class="cls-12" d="M25.77,21.25s.85-.18.71.37c0,.03-.13.32-.77.07.05-.02-.35-.22.06-.44Z"/>
      <path class="cls-12" d="M18.96,21.94s.85-.18.71.37c0,.03-.13.32-.77.07.05-.02-.35-.22.06-.44Z"/>
      <path class="cls-12" d="M21.8,20.96s.85-.18.71.37c0,.03-.13.31-.77.07.05-.02-.35-.22.06-.44Z"/>
      <path class="cls-12" d="M24.48,22.68s.85-.18.71.37c0,.03-.13.32-.77.07.05-.02-.35-.22.06-.44Z"/>
      <path class="cls-12" d="M21.01,21.58s.85-.18.71.37c0,.03-.13.32-.77.07.05-.02-.35-.22.06-.44Z"/>
      <path class="cls-12" d="M20.21,19.44s.51-.77.76-.24c.01.02.1.33-.52.6.02-.05-.39.08-.24-.37Z"/>
      <path class="cls-12" d="M19.34,21.85s.51-.77.76-.24c.01.02.11.33-.52.6.02-.05-.39.08-.24-.37Z"/>
      <path class="cls-12" d="M22.18,23.08s.51-.77.76-.24c.01.02.1.33-.52.6.02-.05-.39.08-.24-.37Z"/>
      <path class="cls-12" d="M24.86,22.59s.51-.77.76-.24c.01.02.1.33-.52.6.02-.05-.39.08-.24-.37Z"/>
      <path class="cls-12" d="M24.9,20.85s.51-.77.76-.24c.01.02.1.33-.52.6.02-.05-.39.08-.24-.37Z"/>
      <path class="cls-12" d="M22.45,20.77s.51-.77.76-.24c.01.02.11.33-.52.6.02-.05-.39.08-.24-.37Z"/>
      <path class="cls-12" d="M23.42,20.15s.83-.3.74.31c0,.03-.1.34-.74.15.04-.03-.36-.19,0-.46Z"/>
      <path class="cls-12" d="M24.35,20.65s.83-.3.74.31c0,.03-.1.34-.74.15.05-.03-.36-.19,0-.46Z"/>
      <path class="cls-12" d="M23.95,23.51s.83-.3.74.31c0,.03-.1.34-.74.15.04-.03-.36-.19,0-.46Z"/>
      <path class="cls-12" d="M20.14,22.58s.83-.3.74.31c0,.03-.09.34-.74.15.05-.03-.36-.19,0-.46Z"/>
      <path class="cls-12" d="M26.84,20.4s.83-.3.74.31c0,.03-.1.34-.74.15.04-.03-.36-.19,0-.46Z"/>
      <path class="cls-12" d="M26,20.76s-.44-.8.12-.82c.02,0,.33.04.29.74-.03-.04-.1.4-.41.08Z"/>
      <path class="cls-8" d="M22.18,23.06l-.43.18s-.49-.09-.47-.83c0,0,.42-.19.56-.26-.06.08-.06.23-.08.21.11.61.34.66.42.66v.03Z"/>
      <path class="cls-12" d="M22.09,22.23s.55.66.06.84c-.02.01-.31.06-.44-.65.04.03,0-.45.39-.18Z"/>
      <path class="cls-8" d="M21.53,24.07l.43-.18s.49.09.47.83c0,0-.42.19-.56.26.06-.08.06-.23.08-.21-.11-.61-.34-.66-.42-.66v-.03Z"/>
      <path class="cls-8" d="M22,21.54l.43-.18s.49.09.47.83c0,0-.42.19-.56.26.06-.08.06-.23.08-.21-.11-.61-.34-.66-.42-.66v-.03Z"/>
      <path class="cls-8" d="M26.03,19.71l.43-.18s.49.09.47.83c0,0-.42.19-.56.26.06-.08.06-.23.08-.21-.11-.61-.34-.66-.42-.66v-.03Z"/>
      <path class="cls-8" d="M25.63,21.99l.43-.18s.49.09.47.83c0,0-.42.19-.56.25.06-.08.06-.23.08-.21-.11-.61-.34-.66-.42-.66v-.03Z"/>
      <path class="cls-8" d="M18.57,23.15l.43-.18s.49.09.47.83c0,0-.42.19-.56.26.06-.08.06-.23.08-.21-.11-.61-.34-.66-.42-.66v-.03Z"/>
      <path class="cls-8" d="M23.8,24.07l.43-.18s.49.09.47.83c0,0-.42.19-.56.26.06-.08.06-.23.08-.21-.11-.61-.34-.66-.42-.66v-.03Z"/>
      <path class="cls-8" d="M20.07,20.26l.43-.18s.49.09.47.83c0,0-.42.19-.56.26.06-.08.06-.23.08-.21-.11-.61-.34-.66-.42-.66v-.03Z"/>
      <path class="cls-8" d="M23.08,21.62l.43-.18s.49.09.47.83c0,0-.42.19-.56.26.06-.08.06-.23.08-.21-.11-.61-.34-.66-.42-.66v-.03Z"/>
      <path class="cls-8" d="M19.05,21.94l-.17-.46s.1-.51.8-.46c0,0,.18.45.24.59-.08-.07-.22-.07-.2-.1-.59.09-.64.34-.64.42h-.03Z"/>
      <path class="cls-8" d="M27.9,20.96l.26-.38s.43-.19.8.44c0,0-.24.42-.33.56,0-.12-.07-.26-.04-.25-.4-.48-.61-.4-.67-.35l-.02-.02Z"/>
      <path class="cls-8" d="M26.47,22.95l.44.16s.32.42-.16.97c0,0-.44-.14-.58-.19.1-.02.19-.14.19-.1.3-.55.15-.76.09-.8v-.03Z"/>
      <path class="cls-8" d="M24.53,22.92l.43-.18s.49.09.47.83c0,0-.42.2-.56.26.06-.08.06-.23.08-.21-.11-.61-.34-.66-.42-.66v-.03Z"/>
      <path class="cls-8" d="M22.9,24.73l.09-.48s.34-.38.91,0c0,0-.06.46-.08.62-.03-.1-.15-.17-.12-.18-.55-.21-.72-.03-.76.05h-.03Z"/>
      <path class="cls-8" d="M20.06,22.36l.09-.48s.34-.38.91,0c0,0-.06.46-.08.62-.03-.1-.15-.17-.12-.18-.55-.21-.72-.02-.76.05h-.03Z"/>
      <path class="cls-8" d="M26.87,21.67l.09-.48s.34-.38.91,0c0,0-.06.46-.08.62-.03-.1-.15-.17-.12-.18-.55-.21-.72-.03-.76.05h-.03Z"/>
      <path class="cls-8" d="M24.04,22.65l.09-.48s.34-.38.91,0c0,0-.06.46-.08.62-.03-.1-.15-.17-.12-.18-.55-.21-.72-.02-.76.05h-.03Z"/>
      <path class="cls-8" d="M21.35,20.93l.09-.48s.34-.38.91,0c0,0-.06.46-.08.62-.03-.1-.15-.17-.12-.18-.55-.21-.72-.03-.76.05h-.03Z"/>
      <path class="cls-8" d="M24.83,22.03l.09-.48s.34-.38.91,0c0,0-.06.46-.08.62-.03-.1-.15-.17-.12-.18-.55-.21-.72-.02-.76.05h-.03Z"/>
      <path class="cls-8" d="M27.56,22.91l.09-.48s.34-.38.91,0c0,0-.06.46-.08.62-.03-.1-.15-.17-.12-.18-.55-.21-.72-.03-.76.05h-.03Z"/>
      <path class="cls-8" d="M25.6,24.77l-.24-.43s.02-.52.66-.62c0,0,.25.37.33.5-.09-.05-.21-.02-.2-.05-.53.23-.54.5-.52.58l-.03.02Z"/>
      <path class="cls-8" d="M28.62,22.78l-.24-.43s.02-.52.66-.62c0,0,.25.37.33.5-.09-.05-.21-.02-.2-.05-.53.23-.54.5-.52.58l-.03.02Z"/>
      <path class="cls-8" d="M26.47,22.36l-.24-.43s.02-.52.66-.62c0,0,.25.37.33.5-.09-.05-.22-.02-.2-.05-.53.23-.54.5-.53.58l-.03.02Z"/>
      <path class="cls-8" d="M23.64,21.14l-.24-.43s.02-.52.66-.62c0,0,.25.37.33.5-.08-.05-.21-.02-.2-.05-.53.23-.54.5-.52.58l-.03.02Z"/>
      <path class="cls-8" d="M20.95,21.63l-.24-.43s.02-.52.66-.62c0,0,.25.37.33.5-.09-.05-.21-.02-.2-.05-.53.23-.54.5-.52.58l-.03.02Z"/>
      <path class="cls-8" d="M20.91,23.36l-.24-.43s.02-.52.66-.62c0,0,.25.37.33.5-.09-.05-.21-.02-.2-.05-.53.23-.54.5-.52.58l-.03.02Z"/>
      <path class="cls-8" d="M23.37,23.45l-.24-.43s.02-.52.66-.62c0,0,.25.37.33.5-.09-.05-.22-.02-.2-.05-.53.23-.54.5-.52.58l-.03.02Z"/>
      <path class="cls-8" d="M22.4,23.51l.04-.5s.29-.4.85-.08c0,0,0,.46,0,.63-.04-.1-.17-.16-.14-.17-.55-.16-.7.05-.73.13h-.03Z"/>
      <path class="cls-8" d="M21.46,23.01l.04-.5s.29-.4.85-.08c0,0,0,.46,0,.63-.04-.1-.17-.16-.14-.17-.55-.16-.7.05-.73.13h-.03Z"/>
      <path class="cls-8" d="M21.86,20.16l.04-.5s.29-.4.85-.08c0,0,0,.47,0,.63-.04-.1-.17-.16-.14-.17-.55-.16-.7.05-.73.13h-.03Z"/>
      <path class="cls-8" d="M25.67,21.09l.04-.5s.29-.4.85-.08c0,0,0,.46,0,.63-.04-.1-.17-.16-.14-.17-.55-.16-.7.05-.73.13h-.03Z"/>
      <path class="cls-8" d="M18.97,23.27l.04-.5s.29-.4.85-.08c0,0,0,.46,0,.63-.04-.1-.17-.16-.14-.17-.55-.16-.7.05-.73.13h-.03Z"/>
      <path class="cls-8" d="M20.47,24.01l-.47.05s-.43-.23-.25-.89c0,0,.42-.08.57-.1-.08.06-.11.2-.13.17-.03.6.19.72.27.74v.03Z"/>
      <path class="cls-12" d="M21.62,24.89s-.55-.66-.06-.84c.02-.01.32-.06.44.65-.04-.03,0,.45-.39.18Z"/>
      <path class="cls-12" d="M22.09,22.37s-.55-.66-.06-.84c.02-.01.32-.06.44.65-.04-.03,0,.45-.39.18Z"/>
      <path class="cls-12" d="M26.12,20.53s-.55-.66-.06-.84c.02-.01.32-.06.44.65-.04-.03,0,.45-.39.18Z"/>
      <path class="cls-12" d="M25.72,22.82s-.55-.66-.06-.84c.02-.01.32-.06.44.65-.04-.03,0,.45-.39.18Z"/>
      <path class="cls-12" d="M18.66,23.98s-.55-.66-.06-.84c.02-.01.31-.06.44.65-.04-.03,0,.45-.39.18Z"/>
      <path class="cls-12" d="M23.89,24.89s-.55-.66-.06-.84c.02-.01.32-.06.44.65-.04-.03,0,.45-.39.18Z"/>
      <path class="cls-12" d="M20.16,21.08s-.55-.66-.06-.83c.02-.01.31-.06.44.65-.04-.03,0,.45-.39.18Z"/>
      <path class="cls-12" d="M23.17,22.44s-.55-.66-.06-.84c.02-.01.31-.06.44.65-.04-.03,0,.45-.39.18Z"/>
      <path class="cls-12" d="M19.85,21.88s-.65.55-.8.03c-.01-.02-.05-.33.63-.44-.03.04.43.02.17.41Z"/>
      <path class="cls-12" d="M28.37,21.67s-.79-.31-.45-.73c.01-.02.23-.22.69.33-.05,0,.25.43-.24.4Z"/>
      <path class="cls-12" d="M26.02,23.65s0-.9.47-.69c.02,0,.27.17-.07.82-.01-.06-.28.35-.41-.13Z"/>
      <path class="cls-12" d="M24.62,23.75s-.55-.66-.06-.84c.02-.01.32-.06.44.65-.04-.03,0,.45-.39.18Z"/>
      <path class="cls-12" d="M23.62,25.07s-.85.18-.71-.37c0-.03.13-.32.77-.07-.05.02.35.22-.06.44Z"/>
      <path class="cls-12" d="M20.79,22.7s-.85.18-.71-.37c0-.03.13-.32.77-.07-.05.02.35.22-.06.44Z"/>
      <path class="cls-12" d="M27.59,22.01s-.85.18-.71-.37c0-.03.13-.32.77-.07-.05.02.35.22-.06.44Z"/>
      <path class="cls-12" d="M24.76,22.99s-.85.18-.71-.37c0-.03.13-.32.77-.07-.05.02.35.22-.06.44Z"/>
      <path class="cls-12" d="M22.07,21.27s-.85.18-.71-.37c0-.03.13-.32.77-.07-.05.02.35.22-.06.44Z"/>
      <path class="cls-12" d="M25.55,22.36s-.85.18-.71-.37c0-.03.13-.32.77-.07-.05.02.35.22-.06.44Z"/>
      <path class="cls-12" d="M28.28,23.25s-.85.18-.71-.37c0-.03.13-.32.77-.07-.05.02.35.22-.06.44Z"/>
      <path class="cls-12" d="M26.34,24.5s-.51.77-.76.24c-.01-.02-.1-.33.52-.6-.02.05.39-.08.24.37Z"/>
      <path class="cls-12" d="M29.36,22.51s-.51.77-.76.24c-.01-.02-.1-.33.52-.6-.02.05.39-.08.24.37Z"/>
      <path class="cls-12" d="M27.22,22.1s-.51.77-.76.24c-.01-.02-.11-.33.52-.6-.02.05.39-.08.24.37Z"/>
      <path class="cls-12" d="M24.38,20.87s-.51.77-.76.24c-.01-.02-.1-.33.52-.6-.02.05.39-.08.24.37Z"/>
      <path class="cls-12" d="M21.7,21.36s-.51.77-.76.24c-.01-.02-.1-.33.52-.6-.02.05.39-.08.24.37Z"/>
      <path class="cls-12" d="M21.66,23.1s-.51.77-.76.24c-.01-.02-.1-.33.52-.6-.02.05.39-.08.24.37Z"/>
      <path class="cls-12" d="M24.11,23.18s-.51.77-.76.24c-.01-.02-.1-.33.52-.6-.02.05.39-.08.24.37Z"/>
      <path class="cls-12" d="M23.14,23.79s-.83.3-.74-.31c0-.03.1-.34.74-.15-.05.03.36.19,0,.46Z"/>
      <path class="cls-12" d="M22.2,23.29s-.83.3-.74-.31c0-.03.1-.34.74-.15-.04.03.36.19,0,.46Z"/>
      <path class="cls-12" d="M22.6,20.44s-.83.3-.74-.31c0-.03.1-.34.74-.15-.05.03.36.19,0,.46Z"/>
      <path class="cls-12" d="M26.41,21.37s-.83.3-.74-.31c0-.03.1-.34.74-.15-.04.03.36.19,0,.46Z"/>
      <path class="cls-12" d="M19.72,23.55s-.83.3-.74-.31c0-.03.1-.34.74-.15-.04.03.36.19,0,.46Z"/>
      <path class="cls-12" d="M20.56,23.19s.44.8-.12.82c-.02,0-.33-.04-.29-.74.03.04.1-.4.41-.08Z"/>
      <path class="cls-8" d="M24.38,20.89l.43-.18s.49.09.47.83c0,0-.42.2-.56.26.06-.08.06-.23.08-.21-.11-.61-.34-.66-.42-.66v-.03Z"/>
      <path class="cls-12" d="M24.46,21.71s-.55-.66-.06-.84c.02-.01.31-.06.44.65-.04-.03,0,.45-.39.18Z"/>
    </g>
    <path class="cls-17" d="M12.34,3.12c0-.43-1.73-.43-1.73,0v15.63h1.73V3.12Z"/>
    <path class="cls-17" d="M10.8,3.12c0-.43-1.71-.43-1.73,0-.23,5.16.39,11.95,0,16.4-.04.43,1.73,0,1.73,0V3.12Z"/>
    <path class="cls-17" d="M14.04,3.12c-.02-.43-1.73-.43-1.73,0v14.37s1.81.43,1.73,0c-.64-3.55.17-9.6,0-14.37Z"/>
    <path class="cls-16" d="M11.06,13.55c0,.88-.08,2.01-.13,2.71l-.32,2.27s.19-9.65.19-13.48c.22,5.76.26,7.07.26,8.49Z"/>
    <path class="cls-16" d="M12.04,8.62c0-.34,0-.08.04-1.12l.23-2.97v13.48c-.22-5.76-.26-7.96-.27-9.39Z"/>
  </g>
</svg>